<svg width="541" height="184" viewBox="0 0 541 184" fill="none" xmlns="http://www.w3.org/2000/svg">
<path d="M246.61 78.0398C250.599 78.2754 267.488 77.2585 269.744 78.5068C272.026 79.7716 287.732 126.437 292.452 133.67C294.344 136.571 298.071 138.923 300.769 141.056C290.175 141.466 279.497 140.991 268.935 141.249C271.065 138.944 272.31 137.883 273.828 135.115L272.492 130.184C265.671 129.601 256.847 130.535 249.466 129.932C246.594 136.585 247.885 137.095 253.506 141.158C253.068 141.188 252.633 141.199 252.193 141.202C247.199 141.232 222.07 141.952 219.286 140.567C217.226 139.541 206.78 125.713 204.354 122.874C202.48 120.683 200.459 118.638 198.409 116.611C197.903 121.257 197.827 130.91 198.909 135.44C201.237 137.329 203.965 138.941 206.667 140.23L206.68 140.675C205.597 141.311 176.61 140.839 172.783 141.164C174.709 139.058 181.07 136.389 181.325 133.855C181.765 129.484 181.571 124.304 181.556 119.871C181.484 108.062 181.346 96.2522 181.144 84.4438C178.66 81.7799 175.634 80.1981 172.528 78.3293C182.644 78.0674 193.187 78.3369 203.317 78.2616C209.825 78.2133 216.072 79.1361 220.741 84.0518C224.02 87.5012 225.655 92.4173 225.494 97.1751C225.275 103.612 221.442 107.429 217.052 111.472C220.71 117.416 227.141 125.159 231.678 130.494C232.935 126.49 236.076 119.889 237.737 115.779C242.068 105.059 247.099 94.093 251.057 83.2509C249.809 81.52 247.366 79.6201 246.61 78.0398ZM206.542 103.427C208.826 100.143 210.359 94.1868 206.18 91.7669C203.539 90.2376 201.152 90.4602 198.27 90.5013C198.303 93.0911 198.17 102.847 198.528 104.757C200.178 106.295 204.953 104.722 206.542 103.427ZM255.137 114.917L261.633 114.908C263.454 114.903 265.405 114.862 267.212 114.903C266.167 112.524 261.909 100.166 261.171 99.5013C259.321 104.312 257.171 110.28 255.137 114.917Z" fill="black"/>
<path d="M67.0793 3.38085C68.7513 3.19862 71.6686 3.36532 73.4798 3.31464C80.504 3.11864 87.9407 3.81034 94.9143 3.55487C94.5639 4.30018 93.3319 6.9079 93.2974 7.62655C92.5983 19.8267 93.0589 32.1832 93.2033 44.3953C93.3021 52.7273 104.409 54.0267 108.979 50.3013C110.321 49.2035 111.263 47.6938 111.659 46.0061C112.16 43.7865 111.993 38.325 111.985 35.8301L111.937 19.023C111.931 15.6688 111.811 11.429 112.137 8.18642L112.184 7.74375C111.376 6.43887 110.759 5.29629 110.046 3.95127C118.172 2.77383 128.035 3.70751 136.362 3.43592C139.632 3.32928 153.122 2.75215 154.947 4.48916C161.586 10.807 168.427 17.313 174.915 23.8251C176.86 25.7766 178.952 27.6726 180.595 29.8822C179.874 24.1216 180.587 17.0704 180.064 11.2219C179.749 7.7001 175.327 6.10459 172.439 3.80859L172.706 3.53436C175.076 3.14559 202.325 3.26103 204.13 3.77724C203.715 4.46074 198.673 7.40331 197.453 8.20781C195.988 11.5368 196.285 28.8035 196.268 33.1957L195.98 67.4004C193.405 65.5485 189.466 61.3834 187.114 59.0353C179.218 51.3352 171.174 43.8103 163.446 35.9373C161.589 34.0459 159.714 32.2936 158.037 30.2256C158.63 39.201 158.061 50.5594 158.163 59.7601C160.92 63.1345 163.742 63.6205 166.49 65.6171L166.392 65.978C164.263 66.6393 136.59 66.1468 132.866 65.7015C135.051 64.6286 140.227 62.5638 141.16 60.2874C142.373 57.3311 142.614 12.617 141.321 9.75117C140.564 8.07363 139.263 6.36298 137.445 5.78554C136.043 5.34023 134.641 5.67743 133.378 6.36005C131.938 7.13788 130.811 7.88115 130.209 9.44912C129.073 12.4099 129.55 16.5149 129.582 19.6497C129.658 26.9689 130.289 44.4826 128.24 50.6355C126.187 56.7987 122.198 61.2366 116.363 64.069C109.177 67.5574 99.0712 67.8108 91.5724 65.2104C84.0135 62.5892 77.4861 56.6508 75.8868 48.5906C75.1711 44.9836 75.2552 41.0684 75.1717 37.4016C75.0712 31.4414 75.0176 25.4804 75.0108 19.5193C74.9815 16.5644 74.9915 12.2889 74.3631 9.43359C73.735 6.57861 68.0877 5.4498 67.0793 3.38085Z" fill="black"/>
<path d="M352.54 2.53155C361.396 1.60137 372.042 4.12354 378.962 9.91846C385.622 15.503 389.755 23.5348 390.423 32.2014C391.08 40.703 388.334 49.1177 382.794 55.5987C377.462 61.7804 368.583 65.9745 360.426 66.5813C350.096 67.0166 342.833 66.295 334.203 59.7929C319.874 48.9973 318.453 27.4702 329.492 13.8568C335.228 6.77929 343.537 3.4459 352.54 2.53155ZM360.467 51.5898C378.567 46.2208 375.625 16.948 356.175 17.594C354.705 17.6429 353.228 17.6827 351.757 17.7328C334.059 22.3808 335.694 55.863 360.467 51.5898Z" fill="black"/>
<path d="M385.543 76.4731C403.695 73.9398 420.476 86.5813 423.048 104.728C425.624 122.877 413.02 139.685 394.876 142.301C376.677 144.923 359.805 132.273 357.221 114.065C354.64 95.8597 367.329 79.0146 385.543 76.4731ZM394.636 126.372C396.649 125.66 397.701 125.256 399.505 124.002C409.548 117.03 408.804 98.6282 397.241 93.5394C393.816 92.0335 390.362 92.057 386.644 92.4173C369.142 95.2386 368.896 130.729 394.636 126.372Z" fill="black"/>
<path d="M0 0C1.08164 0.00146484 1.6333 0.159075 2.57109 0.688469C9.85254 4.79853 34.398 2.17237 44.5263 3.95801C52.0228 5.27989 59.0933 9.93281 63.4169 16.1645C68.2986 23.3329 70.1335 32.1472 68.5175 40.6682C66.767 49.9002 62.2901 55.8513 54.6785 61.0055C45.5045 66.6053 36.2812 66.1529 25.9219 66.1989C18.1353 66.2537 10.3485 66.1986 2.56348 66.0337C5.78936 63.6463 11.0713 62.1894 11.3218 57.9366C11.9186 47.809 11.4826 37.6072 11.5767 27.4588C11.6139 23.4337 11.5893 18.7652 10.9383 14.8146C5.97949 9.33985 2.40176 8.6376 0 0ZM46.478 47.262C49.6799 43.6641 50.6306 40.4546 50.8421 35.7173C51.0803 30.3888 49.9837 25.2756 45.9226 21.4784C41.4363 17.284 34.5375 18.639 28.9693 18.1787C29.4038 23.8638 29.2049 31.1253 29.2436 36.9111C29.2685 40.6561 29.381 47.5239 28.9802 51.0422C35.7311 50.8192 41.3563 51.6964 46.478 47.262Z" fill="black"/>
<path d="M435.476 9.29003C433.156 6.433 428.474 4.41094 428.184 3.22178C429.453 2.77969 430.92 3.28359 432.271 3.17109C441.593 2.39384 451.709 3.73946 460.938 3.03574L461.527 2.9877C458.864 4.36641 452.348 7.36523 452.131 10.6274C451.75 16.3107 451.75 22.1643 451.689 27.8716C451.683 40.9547 451.598 54.0375 451.428 67.1197C449.298 65.6027 448.206 64.7089 446.398 62.8485C445.156 61.4625 443.703 60.1468 442.375 58.8255C432.749 49.236 422.723 39.9823 413.234 30.2605C414.315 39.1239 412.958 50.8992 413.703 60.0891C416.175 62.5037 419.896 64.5246 422.978 66.0888C411.766 66.6062 400.015 65.787 388.891 66.041C391.162 64.0324 394.091 63.0343 396.248 60.9574C397.563 59.5348 397.475 56.202 397.507 54.3457C397.581 50.1437 397.583 45.9202 397.586 41.7281C397.633 31.0907 397.548 20.4533 397.337 9.81796C394.542 6.46669 392.559 5.96104 390.119 3.58272L390.221 3.05273C395.09 3.50918 403.9 3.1875 409.15 3.26836C411.998 5.20606 419.609 13.1499 422.486 15.9715C426.488 19.8973 432.614 25.3213 436.211 29.3675C435.81 23.0065 436.367 15.5505 435.476 9.29003Z" fill="black"/>
<path d="M460.73 77.9048C466.446 78.3571 472.068 78.1409 477.804 78.1192C483.467 78.0978 489.667 78.4585 495.25 77.9054C484.783 83.1735 485.647 82.3025 485.562 93.9759C485.53 98.388 485.418 103.316 485.398 107.775C485.333 119.118 485.208 130.465 485.023 141.806C483.543 140.681 482.295 139.623 480.889 138.416C478.66 135.888 475.625 133.055 473.167 130.635L457.229 114.979C454.112 111.929 450.13 108.249 447.28 105.03C447.289 106.688 447.324 108.413 447.409 110.069C447.828 118.193 447.286 126.422 447.667 134.526C449.498 136.582 453.965 138.996 456.514 140.666C448.651 140.458 440.521 140.795 432.643 140.57C430.376 140.502 425.489 140.634 423.42 140.268C424.399 138.182 431.052 137.159 431.196 132.273C431.445 123.944 431.603 115.527 431.518 107.186C431.445 99.8528 431.861 92.0159 431.146 84.7532C428.826 81.4954 424.484 79.4054 423.951 78.0744C425.597 78.0085 428.363 78.1661 430.211 78.1532C434.424 78.1239 439.044 77.9792 443.208 78.3117C445.179 79.611 449.46 84.0633 451.434 85.9954C457.66 92.1038 463.833 98.2649 469.953 104.482C468.807 98.2766 470.263 90.51 468.86 84.363C468.461 82.6055 462.502 79.1285 460.73 77.9048Z" fill="black"/>
<path d="M107.407 74.4765C109.435 74.9115 110.688 76.4815 113.142 76.73C121.448 77.6587 129.921 77.5802 138.258 77.7732C145.417 77.9414 151.666 77.6221 158.285 80.7738C181.857 91.9983 181.292 127.667 156.863 137.675C149.055 140.874 142.507 140.221 134.242 140.458C125.783 140.701 117.273 140.212 108.81 140.379C111.704 138.375 114.883 137.537 117.226 134.877C118.143 131.634 118.146 127.82 118.371 124.404C124.273 120.727 128.942 121.784 134.335 125.493C140.089 125.074 148.121 126.185 152.439 122.042C158.645 116.089 158.531 102.785 152.692 96.5745C148.575 92.1946 140.568 92.7337 135.028 92.5931C134.948 98.1976 135.15 103.773 134.983 109.401C131.909 108.894 130.758 109.263 127.735 109.858C129.954 108.091 131.836 107.227 134.356 105.938C130.988 106.116 126.268 106.125 123.144 107.382C122.436 107.666 120.157 109.093 119.133 109.623L118.693 109.442C118.805 107.833 120.732 106.761 120.574 105.771C119.953 105.985 119.539 106.102 118.901 106.26C118.185 105.264 118.198 92.0042 117.889 89.3382C115.521 86.5139 111.4 83.84 109.374 80.247C108.593 78.8607 107.041 76.0951 107.407 74.4765Z" fill="black"/>
<path d="M231.384 3.08144C236.771 2.39882 249.911 3.65858 255.087 5.89306C257.331 6.86161 257.482 21.0211 258.485 25.0989L258.6 25.5521C250.128 20.5277 244.028 17.2286 233.474 18.0882C218.379 19.3178 215.704 41.9024 226.137 50.0373C230.466 53.4126 237.785 52.9046 243.124 51.9929C243.131 47.627 243.404 42.4816 242.429 38.2802C239.867 35.3554 236.447 33.8675 233.013 32.1917C239.409 32.4536 247.031 32.1899 253.513 32.141C257.034 32.2318 259.337 32.3285 262.831 32.8482C262.443 33.5074 261.017 35.8787 260.97 36.5259C260.452 43.8032 259.019 57.0275 262.605 63.2651C248.252 68.0247 228.342 70.8486 215.22 61.4177C209.019 56.9607 203.754 49.4692 202.643 41.7987C199.708 21.544 211.215 6.10898 231.384 3.08144Z" fill="black"/>
<path d="M321.936 77.2474C327.444 76.9872 339.957 77.366 345.042 80.1223C347.041 81.2068 347.682 95.3147 348.242 99.0061C345.819 98.0159 343.387 96.4251 341.032 95.2005C331.112 90.0384 314.48 89.7161 311.149 103.172C309.502 109.828 310.05 119.37 316.047 123.721C320.861 127.216 327.458 126.759 333.037 125.912C332.697 121.837 332.873 116.675 332.644 112.322C331.003 110.411 326.922 107.842 324.725 106.366C331.874 106.266 339.022 106.254 346.17 106.327C348.842 106.119 350.167 106.304 352.727 106.77C352.343 107.625 351.467 109.571 351.391 110.406C350.711 117.812 350.972 126.44 350.89 133.928C351.678 134.971 352.334 135.519 352.118 136.837C351.031 137.675 348.335 138.147 346.897 138.533C332.656 142.383 315.933 144.1 303.728 134.118C297.368 128.839 293.336 121.266 292.507 113.039C290.638 94.1721 303.081 79.1247 321.936 77.2474Z" fill="black"/>
<path d="M264.693 3.34863C268.545 2.99678 278.682 3.23878 282.918 3.26134C292.882 3.31436 303.412 3.04365 313.317 3.27187C314.36 8.87812 314.823 16.4757 315.268 22.207C313.83 21.5569 310.443 19.248 309.652 19.0386C304.537 17.6824 295.563 18.2464 290.117 18.3308C290.298 21.2522 290.263 23.6701 290.166 26.5916C295.683 26.5714 306.461 26.8699 311.164 25.1467C310.797 31.0002 311.114 37.7344 310.953 43.7525C310.068 43.0014 309.119 42.2558 308.213 41.5239C302.231 41.4932 296.246 41.4308 290.263 41.337C290.395 44.5602 290.295 47.5723 290.213 50.792C292.247 50.7445 294.327 50.748 296.366 50.7287C301.516 50.7639 309.403 51.4257 313.75 49.1739C315.599 48.2168 317.568 46.6784 319.563 45.5197C318.456 49.4736 316.446 63.2499 314.776 65.5175C311.969 66.4676 303.725 66.1661 300.341 66.1693L277.841 66.1526C273.095 66.1142 268.118 65.8772 263.416 66.1506C266.234 64.2305 269.978 62.637 272.331 60.21C272.875 55.3822 272.662 44.6394 272.58 39.283C272.433 30.1242 273.051 17.557 271.95 8.74248C269.969 6.78457 265.232 4.46748 264.693 3.34863Z" fill="black"/>
<path d="M479.421 1.90752C485.77 1.53633 495.713 2.69503 501.746 5.04142C502.598 10.4151 502.66 17.6112 502.645 23.0244C497.966 20.2828 492.757 17.5644 487.323 16.5861C484.223 16.0799 476.099 15.0407 475.437 19.3808C475.088 22.5132 479.732 23.4375 481.906 24.0732C488.711 26.0648 496.657 27.4658 501.869 32.7103C509.093 39.9785 509.477 53.361 501.974 60.559C496.959 65.369 487.976 67.2202 481.375 67.1775C476.357 67.2126 465.904 65.4179 461.164 63.9489C460.378 58.2038 460.317 47.3953 460.062 41.09C462.18 42.6791 464.155 43.7783 466.61 45.6697C472.103 49.9002 481.956 55.8539 488.744 51.2543C490.273 50.2172 490.121 47.7431 490.121 45.9571C484.285 40.1997 472.381 39.8856 465.233 33.9647C457.358 27.4412 457.947 16.575 463.792 8.86963C467.43 4.07373 473.518 2.42754 479.421 1.90752Z" fill="black"/>
<path d="M510.839 76.8943C515.922 76.5445 528.848 77.0355 533.527 79.9084C535.34 81.022 535.557 95.0188 535.604 98.0979C531.122 95.3382 525.913 92.4642 520.698 91.4651C517.947 90.9378 508.346 90.1058 508.144 94.1575C507.951 98.0101 516.561 99.0442 519.248 100.052C524.196 101.452 530.035 103.043 533.849 106.726C541.463 114.076 542.7 127.081 534.825 134.754C529.132 140.303 522.596 141.422 515.041 141.56C507.749 141.451 501.71 140.473 494.662 138.639C493.797 131.655 493.566 123.024 493.449 116.013C501.968 121.002 507.072 127.823 517.953 127.064C524.266 126.624 525.042 120.911 520.589 118.398C514.044 114.7 505.223 113.813 498.901 109.117C495.54 106.632 493.317 102.909 492.725 98.7718C491 86.4437 499.118 78.3609 510.839 76.8943Z" fill="black"/>
<path d="M44.0376 122.71C44.7445 123.539 43.7479 128.233 43.5738 129.545C43.2141 132.405 42.9507 135.276 42.784 138.153C44.7378 136.248 46.5434 133.89 48.5353 131.994C50.821 129.818 53.5995 127.946 56.1668 126.094C55.4449 128.965 54.8353 132.135 54.2218 135.053C58.9638 131.76 59.9449 130.644 65.7237 129.484C60.9141 135.384 57.7236 140.054 57.0958 147.985C56.9265 151.814 58.149 157.213 60.8707 159.952C68.5137 167.637 77.0821 163.749 83.1879 156.703C84.2479 155.482 86.6174 151.805 88.1262 151.869C90.1075 153.038 96.2262 157.931 97.1643 159.879C97.2407 160.957 97.2302 160.881 96.7559 161.863C87.7099 179.775 67.009 189.349 49.067 176.373C47.3221 175.114 44.3801 170.807 42.8259 170.441L42.3258 170.825C41.7987 172.257 42.0639 173.663 42.1796 175.222C34.8601 166.518 32.8427 158.909 34.5847 147.325C34.9116 145.149 36.9208 140.599 36.1626 138.932C34.6055 139.187 34.2237 140.549 32.923 140.643C32.8717 140.429 32.7993 140.198 32.8494 139.984C34.674 132.132 38.8919 127.951 44.0376 122.71Z" fill="black"/>
<path d="M76.4953 126.205C76.9189 126.522 76.943 126.484 77.1103 126.862C79.0263 131.189 83.2251 130.096 86.5175 131.198C87.8379 131.643 88.7915 135.958 89.2474 137.684C91.1323 138.144 95.436 138.129 96.7008 138.958C101.423 142.172 105.401 146.066 109.812 149.769C112.856 152.324 118.592 155.467 120.835 150.085C121.624 148.19 121.47 146.611 121.279 144.618C126.273 150.844 127.657 155.124 122.774 162.071C126.494 161.74 132.397 161.359 134.25 157.77C136.401 153.601 134.629 149.57 130.797 147.542L130.333 147.302L130.479 147.009C136.312 143.994 155.929 158.277 140.772 171.885C136.261 174.976 132.47 175.055 127.202 175.064C132.475 177.718 133.855 178.163 139.62 177.733C128.13 187.937 112.46 185.564 109.666 168.595C106.32 173.965 106.863 176.007 109.521 181.474C96.402 172.864 104.405 168.941 100.175 158.646C98.8969 155.534 88.539 148.966 85.9081 145.635C83.4504 143.435 84.0475 138.832 82.6945 136.535C80.047 132.041 76.1815 132.624 76.4953 126.205Z" fill="black"/>
<path d="M64.6213 89.8216L65.0561 90.3079C66.3668 100.653 75.3308 104.722 81.4421 112.049C82.3049 113.083 83.035 113.892 84.039 114.803C80.6742 107.994 75.8273 105.173 71.0616 99.6653C69.7594 98.1595 70.8671 93.4808 71.2315 91.5208L71.6235 91.3216C72.1494 93.138 72.936 96.2347 73.9269 97.7434C80.0563 107.08 89.3101 109.254 90.3806 121.319C91.4643 122.71 92.1896 123.712 93.155 125.192C94.2322 124.037 95.267 123.041 96.4028 121.951C96.3188 125.098 94.3286 133.585 91.3459 134.895C88.0348 134.283 93.8098 128.669 82.0427 128.655C82.3819 127.661 83.4489 124.735 82.9705 124.19C80.8257 121.746 70.7215 123.894 68.5939 124.635C70.5516 124.714 72.3586 124.858 74.3106 125.028C73.5565 126.873 72.6776 128.766 72.854 130.773C73.4807 131.868 73.3163 131.458 74.9701 132.006C75.6899 133.726 74.1322 135.109 75.4816 136.823C76.4455 136.966 76.7458 136.928 77.6906 136.872C78.2558 137.546 78.1304 137.165 78.0577 138.059C76.2753 140.725 71.0253 142.234 68.0704 142.998C69.271 141.985 71.6335 140.324 71.7979 138.873C70.8785 138.475 70.9635 138.674 69.7359 138.955C69.0264 139.16 69.0674 139.137 68.3273 139.043L68.2843 138.551C74.4378 130.869 67.2949 124.14 58.0146 128.385C60.2848 124.448 62.0531 122.224 66.0788 120.103C64.9564 119.866 61.3562 119.309 60.6902 118.711L60.8815 118.266C63.3179 116.74 66.6882 116.142 69.4986 115.456C64.8536 113.655 57.9311 117.739 54.4717 120.542C56.9974 120.513 58.3708 120.674 60.9012 120.993C54.0864 123.402 51.2704 125.356 45.7271 129.824C49.1859 120.387 45.4603 118.336 36.6548 119.992C43.8261 113.206 56.6054 113.514 44.3273 103.571C47.3666 103.887 50.4293 104.11 53.3856 104.868C51.5692 101.54 51.7884 99.1292 51.8282 95.4026C55.5896 102.58 60.4629 103.16 66.5285 107.959C67.9966 109.119 69.1506 110.403 70.4077 111.788C68.349 107.159 65.8096 106.19 63.5654 102.797C62.2846 100.861 63.6155 92.0628 64.6213 89.8216Z" fill="black"/>
<path d="M66.264 68.3912C79.7101 67.6635 90.5587 72.1436 92.7979 86.8421C93.7705 93.2259 91.5495 100.061 88.1575 105.405C87.7166 106.099 87.034 106.348 86.2658 106.398C83.8796 104.956 78.8191 99.639 77.0139 97.3421C79.4789 89.4729 79.7897 78.2402 68.269 79.5976C62.8049 81.6741 62.1896 85.5179 61.193 90.6419C60.4553 94.4358 59.9121 97.2308 60.0064 101.113C54.4749 96.595 53.7841 94.137 51.6387 87.1585C49.9178 94.2073 48.9035 94.0198 48.7696 101.763C41.1835 85.2571 48.6343 71.7876 66.264 68.3912Z" fill="black"/>
<path d="M101.064 128.013C103.592 121.928 107.983 116.587 113.016 112.398L113.691 112.269L113.281 112.21L113.684 112.181C113.429 113.403 112.696 115.055 112.911 115.937C115.276 116.991 122.711 107.54 126.541 108.449C125.859 110.13 122.822 111.267 123.313 112.641C124.938 112.931 129.77 111.372 131.786 111.115C137.467 110.382 142.955 112.052 147.469 115.535C148.644 116.441 149.72 116.974 150.643 118.181L150.534 118.591C149.387 118.767 149.501 118.67 148.37 118.641C142.73 118.489 138.78 119.871 133.815 122.107C117.599 115.644 111.074 129.824 104.691 141.853C101.663 139.078 100.269 138.012 96.7354 135.947C101.995 128.681 111.082 120.759 119.739 117.935C121.316 117.639 124.23 116.71 126.138 116.277C122.827 116.262 121.394 116.602 118.197 117.314C113.199 119.072 109.723 120.709 105.532 124.119C104.173 125.224 102.331 127.175 101.064 128.013Z" fill="black"/>
<path d="M118.197 117.314C121.394 116.602 122.827 116.262 126.138 116.277C124.23 116.71 121.316 117.639 119.739 117.935C119.217 117.63 118.769 117.513 118.197 117.314Z" fill="black"/>
</svg>
