<?xml version="1.0" encoding="UTF-8" standalone="no"?>
<svg xmlns:rdf="http://www.w3.org/1999/02/22-rdf-syntax-ns#" xmlns="http://www.w3.org/2000/svg" height="113.387" width="227.685" version="1.1" xmlns:cc="http://creativecommons.org/ns#" xmlns:dc="http://purl.org/dc/elements/1.1/">
 <g fill-rule="evenodd" transform="translate(8.60082 -369.552)">
  <path d="m215.079 434.02c-0.0687-1.36037-0.5575-2.582-1.465-3.62837l-12.2462-19.1561c-0.9775-1.605-2.30375-2.5125-3.87375-2.65125l-34.8562-2.79125c-1.1525 0.105-1.78 0.87125-1.955 2.3025l-1.98875 42.4982-17.5162-47.697c-0.34875-0.7675-0.87125-1.36125-1.57-1.78 1.605 0.14 2.6175-0.34875 3.07125-1.32625l1.95375 1.955c1.0475 0.94125 2.3375 0.7325 3.80375-0.55875 0.10375 0.7675 0.5575 1.15125 1.36 1.11625h7.1175c0.59375 0.52375 1.43125 0.76875 2.5475 0.76875h8.27c1.465 0 2.19875-1.0125 2.2675-3.17625l4.85 3.73375c2.3725 1.675 3.69875 0.9075 4.0475-2.3025 0.62875 1.5 1.77875 2.2325 3.48875 2.1625h9.91c1.15125 0.07 2.19875-0.31375 3.035-1.18625l5.16375-5.8275c0.87375-1.04625 1.43125-2.1625 1.60625-3.38375v-4.99c0.035-1.57-0.55875-2.61625-1.745-3.035 0-0.9775-0.5925-1.85-1.745-2.5825l-7.85-4.32625c-0.69875-0.38375-1.675-0.52375-2.82625-0.45375h-7.6075c-0.6275-1.04625-1.60375-1.29125-2.93-0.7325l-8.9675 4.605v1.955l-7.1175-4.50125c-0.175-1.0475-1.0125-1.535-2.44375-1.465l-8.5825 1.11625c-0.28-1.0475-1.11625-1.675-2.5475-1.815h-10.4325c-0.62875-0.9425-1.675-1.15125-3.14-0.6275l-6.42125 2.3025c-0.27875-0.5925-0.90625-0.8725-1.81375-0.8375l-10.1538-1.22125c-1.25625-0.17375-1.91875 0.14-1.95375 0.8725v7.2575l-5.6875-9.56125c-0.90725-1.81375-1.95362-1.98875-3.14012-0.4875l-2.05863 2.3025h-9.80475c-0.732875-0.07-1.36075 0.27875-1.91888 1.11625l0.2095 0.21h10.1533l-2.51225 4.60625 6.28037-7.5025 9.70025 15.98-0.6275-13.7112 9.94375 0.97625 0.9775 11.375h4.605l-2.19875-10.1538 6.42125-2.4075 1.57 1.91875 1.22125-1.465h10.0488l-3.28 6.56 5.4775 5.19875v-9.7l9.1775-1.43125v1.675l10.7812 5.9325v-3.73375l8.61875-4.2575-0.7325 5.23375 3.6275-4.745h7.25875l9.21125 4.99-11.375 2.65125h12.84v6.03625l-5.93125 7.99125h-12.7362l-3.7325-5.7925-0.8725 7.0125-8.58375-6.52375-0.6275 5.6875h-7.99125l-0.10375-1.32625h-8.82875v-4.50125l-3.9075 4.36125-5.5475-5.19875v3.76875l-7.3975 1.43-1.325-3.245-0.73375 1.675-14.41 1.22125-0.8375-0.9775-8.86237 0.9775-2.65188-5.19875h-1.32612l-4.01275 5.93125h-8.72262l-1.43075 1.32625-5.82662-7.3975-7.99075 4.955-7.50188-16.9575 8.82762-5.44375 2.19825 9.21125 2.30325-2.72125-1.57038-6.49c-0.558625-1.36-1.7095-1.5-3.41938-0.4875l-8.33938 5.09375c-1.08162 0.66375-1.32575 1.675-0.7325 3.03625l7.15288 16.12c1.1865 1.74375 2.51225 2.1625 3.978 1.18625l5.58212-3.73375 3.8735 4.85-28.6816 2.2675c-0.941875 0-1.605 0.41875-1.95412 1.36125l-0.348625 16.4688-12.4912-19.505h20.0976c1.67488-0.27875 2.61675-1.11625 2.7915-2.54625v-5.6875c-0.104875-1.78-0.907125-2.75625-2.30312-2.89625h-4.11725v-1.85h3.38475c1.64012 0.07 2.37262-0.94125 2.19825-3v-5.5825c0.1045-2.09375-0.732875-2.96625-2.54688-2.5475l-16.6089 2.19875v-3.525c0.244125-2.2675-0.663125-3.14-2.65188-2.65125l-9.70012 2.16375c-0.941875 0.27875-1.46538 0.8375-1.53525 1.70875l-8.02538-0.4875c-1.186-0.175-1.98875 0.24375-2.40762 1.325l-23.2725 1.95375c-1.98879 0.245-2.30324 1.39625-0.837875 3.49l4.11762 5.6875c0.976625 1.01125 1.95412 1.465 2.8955 1.325l3.28025-0.34875-1.0815 7.99-5.44338-0.4875c-1.57025-0.21-2.33738 0.5575-2.30275 2.3025l-3.62886 75.5765c0.069825 1.77925 1.25634 2.4775 3.48924 2.0585l33.915-3.28025c1.46538-0.17425 2.8965-0.83737 4.36188-1.91887l17.5508-12.1075v8.72312c0.06988 2.47713 1.15088 4.04738 3.17488 4.57088l46.6161 0.48825c2.75638 0.17475 3.97763-0.76763 3.6285-2.75638l-0.34862-2.6865 6.94362 3.62888c2.3025 1.18612 3.9775 1.08162 4.91875-0.34913l11.0262-22.1568 3.14125-0.48825 0.97625 18.772c0.38375 1.43063 1.465 2.23337 3.14 2.40775l19.61-1.9195v5.6875c0.27875 1.36138 1.57 1.84913 3.8725 1.43063l28.8212-3.00038c1.815-0.17487 3.00125-0.48888 3.52375-0.97712l19.2612-13.3286c1.43-0.90762 2.1275-1.98925 2.0575-3.28025v-22.2612zm-153.106-47.5932-5.6875 0.59375v5.09375h6.42038v6.90875l-22.4009 1.32625v-1.465h-7.25738l0.592875-5.54875h-3.0005v6.77h-7.88575v-12.8412l-3.76862 0.59375v11.5138l-11.1304-0.10375 1.56988-11.27-6.769 0.7325-4.74512-6.42 24.9478-1.955v-1.67375l7.99075 0.83625v5.6875l2.30262-0.34875v-6.9075l9.59525-2.19875-0.48825 6.17625 19.7139-2.40875v6.90875zm41.8359 10.8175 1.88388 3.45375-4.187 0.31375 2.30312-3.7675zm58.2 9.525 35.8688 3.28 14.0275 22.5055-0.105 23.517-21.18 14.4106-31.8562 3.14026v-7.39701l-23.0288 2.30276-0.59375-21.668-7.1525 1.18649-11.375 23.5176-12.491-6.316 1.11625 6.80425h-45.918c-2.33788-0.1045-3.52388-1.15138-3.62888-3.17525v-12.3516l-22.9936 15.771-36.3575 3.62888 3.87261-76.309 40.475 3.62875 15.9805 24.215v-21.7725l51.3263-4.0125-3.733 19.155-27.6348 1.32625 1.22125 8.23487 22.54-0.24412v13.7822l-24.2149 2.54687-2.19825 8.96725 28.3321 1.95413 14.6546-57.0488 20.97 1.81375 21.6688 57.7819 2.4075-53.1756zm-81.2639 22.6452-0.69775-4.46625 24.5639-1.11675c1.88438-0.20937 2.93075-1.186 3.14013-3.001l3.41887-17.3412c0.105-0.6625 0.07-1.36-0.13875-2.05875l4.745-0.5925-13.9562 55.3388-24.3202-1.32562 1.1865-5.44338 21.4585-2.05862c1.98875-0.13963 2.896-1.36088 2.7915-3.62888l0.59325-11.6539c-0.0699-1.88425-0.83787-2.93113-2.30275-3.00088l-20.4819 0.349zm66.2951-44.6965 1.04625-1.15125v2.05875l-1.04625-0.9075" fill="#231f20"/>
  <g fill="#f4a116">
   <path d="m53.8782 390.301v-2.6525h-4.46575l0.69775-2.3025 9.80462-1.22125v-2.3025l-17.062 2.3025-0.349125 13.085 18.0391-0.38375v-2.89625h-11.026v-3.14l4.36138-0.48875"/>
   <path d="m16.9275 385.799 5.09425-0.8375v-2.4075l-20.2374 1.43 1.605 2.19875 8.4785-0.48875-2.05862 11.6188h7.11825v-11.5138"/>
   <path d="m28.9304 387.648-0.139625-6.55875-4.11725-0.34875v16.8175h3.66412l-0.244625-6.42h7.50188v5.5825h3.7335l1.22112-18.2838-5.19875 1.18625v7.2925l-6.42038 0.7325"/>
   <path d="m196.168 411.864-32.205-2.7925-3.035 61.8642 28.4712-2.65175 20.0975-13.4331v-22.0522l-13.3288-20.9346zm-20.6912 13.9214 10.8862-1.95413 3.28125 26.9019-16.8538 6.03662 2.68625-30.9844"/>
  </g>
  <path d="m184.411 426.274-7.01375 1.32625-2.05875 26.1689 3.245-1.186 1.71-21.9472 3.035-0.62787 2.82625 19.749 1.29125-0.48875-3.035-22.9942" fill="#231f20"/>
  <path d="m137.549 465.877 21.075-2.05862-22.2612-59.6999-18.0738-1.46625-14.7592 59.3521 12.108 6.5245 11.025-22.4004 10.3988-1.57037 0.4875 21.3189zm-15.1425-30.5302 6.66375-20.237 6.90875 21.0744-13.5725-0.83738" fill="#f4a116"/>
  <path d="m128.967 422.401-3.525 10.8858 7.5025 0.59325-3.9775-11.479zm0.13875 10.293 0.8025-2.82625 1.1875 2.82625h-1.99" fill="#231f20"/>
  <path d="m75.5462 432.799-1.814-12.7009 28.8209-1.32625 2.6865-15.1425-46.1621 3.73375-1.32575 62.6306h45.0455l-1.56988-10.5371-29.9029-2.0585 2.7915-13.2241 23.9708-1.919v-10.2935l-22.5405 0.8375" fill="#f4a116"/>
  <path d="m39.0843 405.304-37.0558-3.49-3.24462 71.5641 33.2866-3.27975 22.6455-15.3872v-25.541l-15.6318-23.8661zm-23.7266 15.98 12.3516-2.16375 3.62888 31.0196-19.1211 6.7695 3.14062-35.6254" fill="#f4a116"/>
  <path d="m25.7903 421.668-8.374 1.57025-2.8965 31.0196 14.6548-5.583-3.38425-27.0069zm-5.5825 4.46625 5.19875-0.83687 2.6865 22.9936-10.293 3.66413 2.40775-25.8209" fill="#231f20"/>
  <g fill="#f4a116">
   <path d="m175.094 381.577-3.73375 1.815-0.48875 6.07125-10.7812-6.66375v15.0025h4.46625v-7.0125l8.96625 6.42 1.57125-15.6325"/>
   <path d="m186.119 387.998-0.8375 3.38375h4.46625l-2.1625 1.71h-3.525l-2.1625-3.52375 0.94125-4.85 8.235-2.05875-3.385-2.16375h-5.5475l-3.8725 4.955-0.7325 6.66375 3.7325 5.6875h9.805l5.33875-6.28v-3.52375h-10.2938"/>
   <path d="m133.677 379.171-3.385 1.67375 3.28 15.4925 3.73375-0.6975v-7.1525l7.74625 7.50125 3.7675-3.52375-7.64125-7.6075 2.6875-5.23375h-5.5825l-1.675 4.36125-2.93125-4.81375"/>
   <path d="m156.217 380.741-4.745 1.18625v14.7938h4.99l-0.245-15.98"/>
   <path d="m98.3308 380.112h-5.6875l-4.11712 6.315-4.501-5.19875-7.15288 8.68875-2.51212-10.6425-5.33838 2.89625 5.93162 12.98 7.74562-5.09375 5.33875 7.25625 10.293-17.2012"/>
   <path d="m100.983 391.033 4.11725-0.14 2.54725 5.44375 7.39712-0.8375-10.2931-16.7125-14.0615 18.6662h6.66412l3.62888-6.42zm3.14062-5.6875 3.52388 2.75625h-4.955l1.43112-2.75625"/>
   <path d="m122.407 380.252-5.7925-0.38375 1.22125 16.015 11.375-0.6275 1.815-3.28h-7.5025l-1.11625-11.7238"/>
  </g>
  <path d="m91.4227 378.193-0.2095-0.21 0.2095 0.21" fill="#849548"/>
  <path d="m86.5725 377.566c-0.977125-1.0125-1.88425-0.8725-2.75688 0.5225l4.32662 4.57125 1.25638-1.675-2.82612-3.41875" fill="#231f20"/>
 </g>
</svg>