<svg width="1298" height="1298" viewBox="0 0 1298 1298" fill="none" xmlns="http://www.w3.org/2000/svg">
<path d="M648.835 1033.39C605.945 1033.39 563.572 1026.21 522.894 1012.03L530.54 990.075C568.748 1003.39 608.557 1010.14 648.835 1010.14C794.281 1010.14 924.881 923.587 981.534 789.646L1002.94 798.704C942.644 941.279 803.645 1033.39 648.835 1033.39ZM484.121 996.145C474.192 991.44 464.405 986.264 454.97 980.782L466.687 960.689C475.533 965.842 484.756 970.712 494.073 975.135L484.097 996.145H484.121ZM326.017 487.579L305.196 477.204C311.431 464.711 318.395 452.43 325.923 440.737L345.474 453.3C338.416 464.287 331.852 475.816 326.017 487.556V487.579ZM363.332 428.032L344.933 413.821C417.115 320.371 530.846 264.588 649.165 264.588C700.619 264.588 750.944 274.846 798.704 295.056C821.455 304.678 843.312 316.489 863.639 330.135L850.676 349.427C831.572 336.605 811.056 325.5 789.646 316.465C744.756 297.479 697.49 287.856 649.165 287.856C537.998 287.856 431.137 340.275 363.332 428.055V428.032ZM904.93 394.152C897.66 386.859 889.99 379.777 882.155 373.166L897.166 355.403C905.518 362.461 913.682 369.966 921.422 377.754L904.93 394.152Z" fill="white"/>
</svg>
